<svg width="512" height="512" xmlns="http://www.w3.org/2000/svg" xml:space="preserve" enable-background="new 0 0 512 512" version="1.1">

 <g>
  <title>Layer 1</title>
  <path id="svg_1" d="m202,1c36.35423,0 72.70847,0 109.19543,0.27634c0.92099,0.77056 1.6633,1.36752 2.5044,1.74356c12.39419,5.54123 21.42364,14.11446 24.28216,27.84524c2.24494,10.78332 3.73703,21.72671 6.09647,32.48208c3.44553,15.70613 18.41828,25.27918 33.59683,22.34376c9.5387,-1.84471 18.77903,-5.91517 27.74021,-9.91282c15.75332,-7.02766 35.26922,-3.2656 45.30783,7.29273c9.60165,10.09878 14.87204,22.8084 21.98331,34.39113c8.55212,13.92961 16.53622,28.2117 24.61102,42.42934c5.31604,9.36021 9.22711,18.83894 7.91818,30.32803c-1.4884,13.0647 -8.83896,21.76933 -17.99402,29.79009c-7.70166,6.74751 -16.32599,12.735 -22.82095,20.49864c-9.94953,11.89297 -6.28284,29.47036 4.81146,39.12753c8.76904,7.63312 18.35114,14.45557 26.37814,22.78821c11.4747,11.91162 13.36219,30.93652 4.96665,45.54156c-7.02158,12.21485 -13.8324,24.55118 -20.89856,36.73984c-7.63455,13.16901 -15.18735,26.39807 -23.26679,39.29331c-9.85788,15.7337 -28.82794,21.63076 -45.80285,15.94784c-9.77619,-3.27292 -19.31092,-7.26074 -29.04767,-10.65927c-14.67255,-5.12125 -32.0008,3.44022 -36.43292,18.51755c-2.45307,8.34482 -3.94763,17.05307 -5.02607,25.70324c-2.20346,17.67429 -9.76583,31.12461 -27.23272,37.61728c-0.45877,0.17054 -0.58713,1.22989 -0.86954,1.87479c-36.35422,0 -72.70845,0 -109.20529,-0.28406c-0.93405,-0.77408 -1.68019,-1.36673 -2.52368,-1.73864c-12.4554,-5.49213 -21.45124,-14.07523 -24.26386,-27.8603c-2.1994,-10.77954 -3.78819,-21.68551 -6.06813,-32.44635c-3.52168,-16.62164 -21.78731,-26.81887 -37.80902,-21.23004c-8.0486,2.80762 -16.03928,5.80817 -23.93886,9.01074c-18.83635,7.63648 -39.37986,2.97529 -50.80657,-14.66503c-5.52884,-8.53534 -10.38428,-17.50766 -15.52177,-26.29551c-8.58635,-14.68713 -17.14517,-29.39035 -25.73382,-44.07614c-4.64074,-7.93524 -8.37867,-16.34436 -7.9987,-25.6235c0.57962,-14.155 7.6296,-25.04694 18.55895,-33.86164c7.95956,-6.41949 16.36923,-12.66137 22.87791,-20.41061c9.85341,-11.73141 6.46686,-29.74219 -5.5884,-39.55215c-8.8232,-7.17986 -17.85042,-14.27488 -25.69077,-22.45775c-11.72124,-12.23334 -13.14466,-31.01404 -4.79969,-45.55444c6.92286,-12.06248 13.60343,-24.26476 20.58896,-36.2903c7.81181,-13.44795 15.5962,-26.92321 23.8501,-40.09996c9.37125,-14.96052 28.56031,-21.17232 44.60003,-15.61946c10.03734,3.47485 19.93857,7.34326 29.97902,10.80863c14.71986,5.08044 32.11221,-3.51004 36.34408,-18.63965c2.82288,-10.09222 4.41269,-20.56075 6.08214,-30.93684c2.52538,-15.69603 10.9901,-26.38191 25.72141,-32.23785c0.60933,-0.24221 0.90445,-1.27479 1.34596,-1.93915m137.54858,118.0376c-15.21249,-8.13233 -26.79483,-20.04351 -32.23754,-36.28009c-4.44648,-13.26483 -6.36594,-27.37676 -9.46955,-41.40128c-27.01343,0 -54.87326,0 -82.55745,0c-1.49635,9.87357 -2.30212,19.523 -4.4989,28.84461c-5.77182,24.49161 -19.84247,42.34343 -43.50352,52.13257c-11.55396,4.78016 -23.82973,6.53337 -35.68593,4.14357c-13.74911,-2.77134 -26.96489,-8.18855 -40.65543,-12.53445c-13.50445,23.37502 -27.33248,47.31011 -41.22989,71.36532c3.27723,2.70256 6.45185,5.03128 9.29022,7.71554c8.41754,7.96056 17.87185,15.17711 24.7753,24.30689c11.39423,15.06877 14.39313,32.77456 11.27475,51.52439c-2.96849,17.84867 -11.4038,32.25547 -25.65713,43.42554c-6.67315,5.22965 -12.96747,10.94269 -19.63952,16.6117c13.90144,24.04352 27.74839,47.99282 41.50853,71.79199c7.44226,-2.82413 14.67883,-5.51846 21.87708,-8.31159c20.31363,-7.88223 40.70037,-8.0401 60.10149,1.89649c17.80087,9.11703 30.53111,23.50665 35.62327,43.29336c2.97335,11.55347 4.61344,23.45005 6.84043,35.12452c27.6888,0 55.43333,0 82.87263,0c1.6832,-10.1482 2.92728,-20.0261 5.02051,-29.72062c3.25958,-15.09661 10.543,-27.91995 22.20908,-38.40329c16.03836,-14.41226 35.12381,-20.09088 55.72308,-17.09631c14.00891,2.03653 27.42276,8.16623 41.5249,12.59821c13.42426,-23.22235 27.31675,-47.25467 41.22547,-71.31507c-1.18692,-1.10229 -1.99103,-1.94421 -2.88962,-2.669c-10.32413,-8.32721 -21.35281,-15.86081 -29.46881,-26.6442c-13.19794,-17.53561 -16.80338,-37.25159 -12.36493,-58.34086c3.97967,-18.90981 15.27222,-33.09098 30.81656,-44.22814c4.87588,-3.49344 9.20495,-7.75003 13.86105,-11.72279c-13.99023,-24.18668 -27.82144,-48.09839 -41.52786,-71.79439c-4.81739,1.82514 -9.27182,3.75627 -13.87769,5.2067c-9.37207,2.95139 -18.66137,6.77455 -28.28497,8.17359c-13.98349,2.03287 -27.65827,-0.90612 -40.99561,-7.69291z" fill="#C0C0C0"/>
  <path id="svg_5" d="m247.33475,158.0025c19.5589,-0.90907 37.97177,1.71727 55.05505,10.81037c27.94046,14.87214 45.29956,37.67427 51.67127,68.83467c4.70037,22.98719 1.75045,45.01243 -9.22379,65.50261c-14.70245,27.45132 -37.49417,44.68737 -68.34308,50.89468c-22.07225,4.44135 -43.32837,2.00766 -63.32576,-8.11881c-28.85624,-14.61251 -46.82645,-37.76699 -53.2845,-69.80221c-4.46719,-22.15948 -1.85116,-43.41681 8.29842,-63.28647c14.6028,-28.58764 37.68014,-46.78744 69.65919,-52.88365c3.02176,-0.57603 6.01613,-1.29585 9.4932,-1.95119m-10.27912,153.55924c2.47087,0.72769 4.90583,1.6261 7.41855,2.15481c14.24686,2.99784 27.68768,1.16922 40.52185,-6.08154c10.17047,-5.74585 17.99292,-13.73441 23.45374,-23.76868c5.73559,-10.53918 7.95013,-22.20312 6.30749,-34.12072c-2.00055,-14.51461 -8.8735,-26.54776 -19.84359,-36.48787c-9.04987,-8.20018 -19.69211,-12.89327 -31.40366,-14.05751c-18.47879,-1.83701 -34.41931,4.11207 -47.8972,17.49633c-19.29386,19.15984 -22.04118,49.62748 -7.42887,71.63996c6.90542,10.40249 15.92704,18.74875 28.87169,23.22522z" fill="#C0C0C0"/>
 </g>
</svg>