<svg width="512" height="512" xmlns="http://www.w3.org/2000/svg" xml:space="preserve" enable-background="new 0 0 512 512" version="1.1">

 <g>
  <title>Layer 1</title>
  <path id="svg_2" d="m127.00076,338c0,8.45398 0,16.40799 0,23.31094c7.07172,-6.54705 14.57184,-13.42758 21.99681,-20.38827c4.55852,-4.27347 8.77605,-8.93967 13.55663,-12.93958c5.49246,-4.59558 11.73604,-3.84533 17.87086,-1.10617c6.24468,2.7883 8.02244,8.71665 8.26972,14.48319c0.1488,3.46969 -1.94156,7.65829 -4.28003,10.48672c-5.47106,6.61734 -11.63156,12.67441 -17.63228,18.8422c-14.71329,15.12295 -29.76352,29.93014 -44.1138,45.38827c-5.66274,6.09995 -18.76134,5.93115 -24.23446,0.10043c-16.25858,-17.32107 -33.15329,-34.04422 -49.74705,-51.05212c-3.56756,-3.65662 -6.81363,-7.62717 -10.38592,-11.27881c-7.11827,-7.2764 -7.38428,-17.8006 -1.09759,-24.68906c5.14819,-5.64099 18.16255,-5.91421 24.7429,1.1804c9.255,9.97821 18.88066,19.61209 28.28655,29.45175c0.98077,1.026 1.54797,2.44732 2.30705,3.68524c0.48689,-0.34519 0.97378,-0.69034 1.46067,-1.03552c0,-1.76239 0,-3.52478 0,-5.28717c-0.00017,-82.29804 0.10118,-164.59636 -0.13829,-246.89371c-0.02769,-9.51598 7.72229,-17.34805 16.5203,-17.41078c8.93933,-0.06376 16.77488,7.88127 16.74651,17.25077c-0.22944,75.79985 -0.12865,151.60071 -0.12858,227.90128z" fill="#C0C0C0"/>
  <path id="svg_3" d="m237.94398,125.45132c-8.83245,-1.75912 -13.88885,-9.53895 -12.94293,-18.44937c0.84804,-7.98832 7.96636,-13.99792 16.66631,-13.9986c74.63272,-0.00583 149.26547,-0.00633 223.89819,0.0006c8.52231,0.00079 15.38495,6.83768 15.43442,15.31452c0.06012,10.30168 -6.16779,17.59136 -15.3765,17.6523c-15.65887,0.10365 -31.3189,0.02918 -46.97845,0.0292c-58.30682,0.00009 -116.61365,0.00232 -174.92047,-0.01058c-1.8226,-0.00041 -3.64519,-0.15767 -5.78057,-0.53807z" fill="#C0C0C0"/>
  <path id="svg_4" d="m256.00046,224.00009c-5.66652,-0.00006 -10.83339,0.0296 -15.9998,-0.00738c-7.11417,-0.05091 -14.02338,-6.38892 -14.99152,-13.69773c-1.08026,-8.15536 4.10182,-16.59172 11.44669,-18.2251c3.00143,-0.66745 6.13687,-1.02264 9.21186,-1.0259c55.99991,-0.05938 111.99997,-0.01246 167.99991,-0.07309c9.68189,-0.01049 16.06418,6.19017 17.42673,13.89264c1.86716,10.55514 -5.37409,19.18998 -15.59409,19.17128c-44.1665,-0.08089 -88.33328,-0.03472 -132.49993,-0.03476c-8.83335,0 -17.66666,0.00003 -26.99985,0.00004z" fill="#C0C0C0"/>
  <path id="svg_5" d="m227.21997,314.56574c-6.13089,-12.4549 1.2946,-24.56562 14.66184,-24.56571c40.83117,-0.0003 81.66235,-0.0007 122.49353,0.00034c10.3695,0.00024 17.5202,6.30078 17.53354,16.18753c0.01147,8.51614 -6.56998,16.6878 -16.90851,16.73501c-40.99695,0.18735 -81.9957,0.16513 -122.99271,-0.02157c-5.95573,-0.0271 -11.42023,-2.24622 -14.78769,-8.3356z" fill="#C0C0C0"/>
  <path id="svg_6" d="m321.54889,419.98035c-2.3151,0.36389 -4.21921,0.97219 -6.12488,0.97714c-24.63855,0.06424 -49.27734,0.05282 -73.91609,0.03747c-9.35397,-0.00582 -16.19844,-6.65734 -16.54727,-15.61251c-0.40079,-10.28882 6.97447,-17.11728 15.99571,-17.25238c24.9661,-0.37388 49.94156,-0.17206 74.91303,-0.09977c6.2611,0.0181 13.6795,5.67441 15.1141,11.14814c2.14682,8.19122 -0.15286,14.76654 -6.64087,19.03768c-0.81882,0.53904 -1.59012,1.15037 -2.79373,1.76423z" fill="#C0C0C0"/>
 </g>
</svg>